<?xml version="1.0" encoding="iso-8859-1"?>
<!-- Generator: Adobe Illustrator 19.0.0, SVG Export Plug-In . SVG Version: 6.00 Build 0)  -->
<svg version="1.1" id="Layer_1" xmlns="http://www.w3.org/2000/svg" xmlns:xlink="http://www.w3.org/1999/xlink" x="0px" y="0px"
	 viewBox="0 0 490.1 490.1" style="enable-background:new 0 0 490.1 490.1;" xml:space="preserve" fill="white">
<g>
	<path d="M469.2,0.6H20.8C9.4,0.6,0,10,0,21.4v341.2c0,11.4,9.4,20.8,20.8,20.8h202.9v64.5h-29.1c-11.4,0-20.8,9.4-20.8,20.8
		s9.4,20.8,20.8,20.8h99.9c11.4,0,20.8-9.4,20.8-20.8s-9.4-20.8-20.8-20.8h-29.1v-64.5h202.9c11.4,0,20.8-8.3,21.8-19.8V21.4
		C490,10,480.6,0.6,469.2,0.6z M448.4,342.9H40.6V228.5H103c6.2,0,12.5-4.2,16.6-9.4l31.2-48.9L189.3,293
		c3.1,8.3,9.4,13.5,17.7,14.6c9.5,0.4,16.6-4.2,19.8-10.4l80.1-143.6l15.6,60.3c2.1,9.4,10.4,15.6,19.8,15.6h71.8
		c11.4,0,20.8-9.4,20.8-20.8c0-11.4-9.4-20.8-20.8-20.8h-56.2L334,93.2c-0.5-12-23-25.7-37.5-5.2l-82.2,146.7l-36.4-118.6
		c-1.6-10-20.1-24.9-36.4-5.2l-49.9,75.9h-51V41.2h407.8V342.9z"/>
</g>
<g>
</g>
<g>
</g>
<g>
</g>
<g>
</g>
<g>
</g>
<g>
</g>
<g>
</g>
<g>
</g>
<g>
</g>
<g>
</g>
<g>
</g>
<g>
</g>
<g>
</g>
<g>
</g>
<g>
</g>
</svg>
