<?xml version="1.0" encoding="iso-8859-1"?>
<!-- Generator: Adobe Illustrator 19.0.0, SVG Export Plug-In . SVG Version: 6.00 Build 0)  -->
<svg version="1.1" id="Layer_1" xmlns="http://www.w3.org/2000/svg" xmlns:xlink="http://www.w3.org/1999/xlink" x="0px" y="0px"
	 viewBox="0 0 488.847 488.847" style="enable-background:new 0 0 488.847 488.847;" xml:space="preserve" fill="white">
<g>
	<path d="M488.341,172.123c-1-8.3-8.3-14.6-16.6-15.6c-36.4-5.2-71.8-28.1-98.8-63.5c-3.1-4.2-30.2-39.5-45.8-49.9
		c-7.3-5.2-19.8-9.4-40.6-3.1c-6.4,1.7-13.1,4.4-19.8,7.7v-10.8c0-11.4-9.4-20.8-20.8-20.8s-20.8,9.4-20.8,20.8v10.5
		c-7.2-3.7-14.7-6.5-21.8-8.4c-16.6-5.2-31.2-4.2-41.6,3.1c-15.6,10.4-41.6,46.8-45.8,49.9c-27,35.4-61.4,58.3-98.8,63.5
		c-8.3,1-14.6,7.3-16.6,15.6c-2.1,8.3,2.1,17.7,9.4,21.8c29,18.1,63.5,39.4,101.5,44.6c-3.1,5.7-4.8,12-4.8,18.9
		c0,23.3,19.7,40,47.9,50.8c-13.9,10.9-21.9,24.5-21.9,39.7c0,33.3,38.7,59.2,92.6,64.5v40.5c0,11.4,9.4,20.8,20.8,20.8
		s20.8-9.4,20.8-19.8v-41.5c54.6-5.3,92.6-31.2,92.6-64.6c0-15-7.9-28.5-21.5-39.4c28.1-10.6,47.5-27.4,47.5-51.2
		c0-7-1.7-13.4-5-19.2c36.7-5.7,71-26.3,98.6-43.2C486.241,188.723,490.341,180.423,488.341,172.123z M148.141,117.023
		c3.1-4.2,26-34.3,34.3-40.6c10.2-0.9,34.3,11.3,42.5,20.6c0.1,0.3,0.1,0.6,0.2,0.9v88.4c-1.6-0.7-21-8.6-63.5,4.6
		c-11.8,3.5-36.2,17.5-91.5-9.4C99.241,167.923,126.241,146.123,148.141,117.023z M148.141,256.423c3.7-6.4,29.8-20.8,77-24.2v48.5
		C177.941,277.223,151.741,262.823,148.141,256.423z M173.041,346.923c0-5.3,17.8-19.4,52-23.7v47.4
		C190.841,366.323,173.041,352.123,173.041,346.923z M266.741,370.623v-47.4c34.3,4.3,52,18.4,52,23.7
		S300.941,366.323,266.741,370.623z M266.741,280.623v-48.5c47.2,3.4,73.3,17.8,77,24.2
		C340.041,263.723,313.941,277.423,266.741,280.623z M326.041,191.923c-40-12.6-59-6.1-59.3-6v-89.1c8.6-9.4,30.4-19.4,38.5-19.4
		c9.4,6.2,31.2,36.4,34.3,40.6c21.8,29.1,48.9,51,78,64.5C363.341,209.623,336.941,194.723,326.041,191.923z"/>
</g>
<g>
</g>
<g>
</g>
<g>
</g>
<g>
</g>
<g>
</g>
<g>
</g>
<g>
</g>
<g>
</g>
<g>
</g>
<g>
</g>
<g>
</g>
<g>
</g>
<g>
</g>
<g>
</g>
<g>
</g>
</svg>
