<?xml version="1.0" encoding="iso-8859-1"?>
<!-- Generator: Adobe Illustrator 19.0.0, SVG Export Plug-In . SVG Version: 6.00 Build 0)  -->
<svg version="1.1" id="Layer_1" xmlns="http://www.w3.org/2000/svg" xmlns:xlink="http://www.w3.org/1999/xlink" x="0px" y="0px"
	 viewBox="0 0 489.838 489.838" style="enable-background:new 0 0 489.838 489.838;" xml:space="preserve" fill="white">
<g>
	<path d="M446.713,235.481c-19.6-19.6-43.7-33.1-69.9-39.5c41.8-45.9,41.4-117-2.9-161.3c-30.9-30.9-101.1-58.9-164.4,0
		l-175.8,174.8c-44.7,45.8-45.2,119.1,0,164.4c56.9,56.9,134.8,33.1,164,1.4c6.1,25.7,18.9,50.4,38.9,70.4c71,71,165.4,44.7,210.1,0
		C504.513,387.881,503.913,293.781,446.713,235.481z M252.513,400.481c-27.8-41.6-23.5-99.2,13.2-135.8
		c50.6-50.6,115.3-28.2,135.1-13.3L252.513,400.481z M237.613,62.781c37.4-35.7,86.8-19.3,106.1,0c29.6,29.6,29.1,78,0,107.2
		l-23.4,23.4c-25,3.6-48.6,13.6-68.8,29l-86.5-86.5L237.613,62.781z M62.813,345.781c-29.7-29.7-29.1-78,0-107.2l73.1-73.6
		l86.7,86.7c-15,20.4-24.2,43.8-27.6,67.8l-26.2,26.2C150.113,364.581,100.813,383.781,62.813,345.781z M417.613,416.581
		c-22.8,22.8-76.5,49.6-136.2,13.4l149-149.8C458.613,321.781,454.413,379.781,417.613,416.581z"/>
</g>
<g>
</g>
<g>
</g>
<g>
</g>
<g>
</g>
<g>
</g>
<g>
</g>
<g>
</g>
<g>
</g>
<g>
</g>
<g>
</g>
<g>
</g>
<g>
</g>
<g>
</g>
<g>
</g>
<g>
</g>
</svg>
