<?xml version="1.0" encoding="iso-8859-1"?>
<!-- Generator: Adobe Illustrator 19.0.0, SVG Export Plug-In . SVG Version: 6.00 Build 0)  -->
<svg version="1.1" id="Layer_1" xmlns="http://www.w3.org/2000/svg" xmlns:xlink="http://www.w3.org/1999/xlink" x="0px" y="0px"
	 viewBox="0 0 489.758 489.758" style="enable-background:new 0 0 489.758 489.758;" xml:space="preserve" fill="white">
<g>
	<g>
		<path d="M473.4,330.179l-104-104v-167.5c0-11.4-9.4-20.8-20.8-20.8h-72.8v-16.7c0-11.4-9.4-20.8-20.8-20.8H114.5
			c-11.4,0-20.8,9.4-20.8,20.8v16.7H20.8c-11.4,0-20.8,9.4-20.8,20.8v409.9c0,11.4,9.4,20.8,20.8,20.8h327.7
			c11.4,0,20.8-9.4,20.8-20.8v-30.3c37.1,31,79.1,5.3,95.7-10.3C494.2,398.879,498.3,355.179,473.4,330.179z M135.3,40.979h98.8
			v35.4h-98.8V40.979z M40.6,448.779v-369.3h53.1v16.6c0,11.4,9.4,20.8,20.8,20.8h140.4c10.4,0,19.8-9.4,20.8-19.8v-17.6h52v115.4
			l-89.5-16.5c-6.5-2.7-24.9,1.8-22.9,22.9l17.7,95.7c0,4.2,2.1,7.3,5.2,10.4l89.5,89.5v52H40.6V448.779z M435.9,398.879
			c-8.3,7.3-25.9,18.7-40.6,8.3l-123.7-123.8l-11.4-60.3l59.3,11.4l124.8,124.8C451.5,366.579,450.5,384.279,435.9,398.879z"/>
		<path d="M151.9,174.179h-10.4v-11.4c0-11.4-9.4-20.8-20.8-20.8s-20.8,9.4-20.8,20.8v11.4H87.4c-11.4,0-20.8,9.4-20.8,20.8
			c0,11.4,9.4,20.8,20.8,20.8h12.5v11.4c0,11.4,9.4,20.8,20.8,20.8c10.4,0,19.8-8.3,20.8-20.8v-11.4h11.4c11.4,0,19.8-9.4,19.8-20.8
			C172.7,183.479,163.4,174.179,151.9,174.179z"/>
	</g>
</g>
<g>
</g>
<g>
</g>
<g>
</g>
<g>
</g>
<g>
</g>
<g>
</g>
<g>
</g>
<g>
</g>
<g>
</g>
<g>
</g>
<g>
</g>
<g>
</g>
<g>
</g>
<g>
</g>
<g>
</g>
</svg>
