<?xml version="1.0" encoding="iso-8859-1"?>
<!-- Generator: Adobe Illustrator 19.0.0, SVG Export Plug-In . SVG Version: 6.00 Build 0)  -->
<svg version="1.1" id="Layer_1" xmlns="http://www.w3.org/2000/svg" xmlns:xlink="http://www.w3.org/1999/xlink" x="0px" y="0px"
	 viewBox="0 0 490 490" style="enable-background:new 0 0 490 490;" xml:space="preserve" fill="white">
<g>
	<path d="M442,111.45c-26.1,0-48,20.9-48,48c0,19.2,11.3,36.1,28.1,43.7v131.4c0,63.6-51.1,114.7-114.7,114.7
		c-58.8,0-106.8-43.6-113.8-100.4c84-10.1,148.2-75.6,148.2-156.1v-95.9c0-41.7-33.4-75.1-75.1-75.1h-5.4c-1.3-8.8-5-21.6-20.7-21.6
		c-15.8,0-20.9,14-20.9,23.8v38.3c0,9.8,5.2,23.8,20.9,23.8c15.6,0,19.6-13,20.8-22.7h5.3c18.8,0,34.4,15.6,34.4,34.4v97
		c0,63.6-58.4,115.7-130.3,115.7s-130.1-52-130.1-115.6v-96c0-18.8,15.6-34.4,34.4-34.4h7.5c1.3,8.8,5.2,21.6,20.7,21.6
		c16.3,0,19.8-13.1,20.9-22.9v-39.2c0-9.8-4.7-23.8-20.9-23.8c-15.8,0-20.1,13.4-20.8,22.7h-7.4C33.4,22.75,0,56.15,0,97.85v95.9
		c0,80.6,66.1,146.8,151.9,155.4c7.4,78.7,74.1,140.7,154.6,140.7c85.5,0,155.3-69.9,157.4-156.4v-131.6
		c15.4-8.1,26.1-24.3,26.1-42.5C490,133.25,469.1,111.45,442,111.45z M442,165.65c-4.2,0-7.3-3.1-7.3-7.3s3.1-7.3,7.3-7.3
		s7.3,4.2,7.3,7.3C449.3,162.45,446.2,165.65,442,165.65z"/>
</g>
<g>
</g>
<g>
</g>
<g>
</g>
<g>
</g>
<g>
</g>
<g>
</g>
<g>
</g>
<g>
</g>
<g>
</g>
<g>
</g>
<g>
</g>
<g>
</g>
<g>
</g>
<g>
</g>
<g>
</g>
</svg>
